DIN_OSP.sfdir

StartChar: exclam
Encoding: 33 33 4
Width: 434
GlyphClass: 2
Flags: W
LayerCount: 2
Fore
SplineSet
115 1434 m 5,0,-1
 319 1434 l 5,1,-1
 319 1024 l 5,2,-1
 268 307 l 5,3,-1
 166 307 l 5,4,-1
 115 1024 l 5,5,-1
 115 1434 l 5,0,-1
115 205 m 5,6,-1
 319 205 l 5,7,-1
 319 0 l 5,8,-1
 115 0 l 5,9,-1
 115 205 l 5,6,-1
EndSplineSet
Validated: 1
EndChar

StartChar: percent
Encoding: 37 37 141
Width: 856
VWidth: 0
Flags: HW
LayerCount: 2
Fore
SplineSet
577.5 1433.6 m 1,0,-1
 738.5 1433.6 l 1,1,-1
 267.5 -203 l 1,2,-1
 106.5 -203 l 1,3,-1
 577.5 1433.6 l 1,0,-1
240.5 1394 m 4,4,5
 304 1394 304 1394 349 1350 c 132,-1,6
 394 1306 394 1306 395 1242.5 c 5,7,-1
 395 1095.5 l 6,8,9
 395 1031 395 1031 349.5 986 c 132,-1,10
 304 941 304 941 240.5 941 c 260,11,12
 177 941 177 941 132.5 985 c 132,-1,13
 88 1029 88 1029 86 1091.5 c 5,14,-1
 86 1095.5 l 5,15,-1
 86 1239.5 l 6,16,17
 86 1304 86 1304 131 1349 c 132,-1,18
 176 1394 176 1394 240.5 1394 c 4,4,5
240.5 1290.5 m 132,-1,20
 219 1290.5 219 1290.5 204 1275.75 c 132,-1,21
 189 1261 189 1261 189 1240.5 c 6,22,-1
 189 1095.5 l 6,23,24
 189 1074 189 1074 204 1059.25 c 132,-1,25
 219 1044.5 219 1044.5 240.5 1044.5 c 4,26,27
 261 1044.5 261 1044.5 276.25 1058.75 c 132,-1,28
 291.5 1073 291.5 1073 291.5 1093.5 c 6,29,-1
 291.5 1239.5 l 6,30,31
 291.5 1261 291.5 1261 276.75 1275.75 c 132,-1,19
 262 1290.5 262 1290.5 240.5 1290.5 c 132,-1,20
615.5 271 m 0,32,33
 679 271 679 271 724 227 c 128,-1,34
 769 183 769 183 770 119.5 c 1,35,-1
 770 -27.5 l 2,36,37
 770 -92 770 -92 724.5 -137 c 128,-1,38
 679 -182 679 -182 615.5 -182 c 256,39,40
 552 -182 552 -182 507.5 -138 c 128,-1,41
 463 -94 463 -94 461 -31.5 c 1,42,-1
 461 -27.5 l 1,43,-1
 461 116.5 l 2,44,45
 461 181 461 181 506 226 c 128,-1,46
 551 271 551 271 615.5 271 c 0,32,33
615.5 167.5 m 128,-1,48
 594 167.5 594 167.5 579 152.75 c 128,-1,49
 564 138 564 138 564 117.5 c 2,50,-1
 564 -27.5 l 2,51,52
 564 -49 564 -49 579 -63.75 c 128,-1,53
 594 -78.5 594 -78.5 615.5 -78.5 c 0,54,55
 636 -78.5 636 -78.5 651.25 -64.25 c 128,-1,56
 666.5 -50 666.5 -50 666.5 -29.5 c 2,57,-1
 666.5 116.5 l 2,58,59
 666.5 138 666.5 138 651.75 152.75 c 128,-1,47
 637 167.5 637 167.5 615.5 167.5 c 128,-1,48
EndSplineSet
Validated: 526337
EndChar

StartChar: quotesingle
Encoding: 39 39 5
Width: 380
GlyphClass: 2
Flags: W
LayerCount: 2
Fore
SplineSet
109 1434 m 1,0,-1
 272 1434 l 1,1,-1
 272 1106 l 1,2,-1
 109 1106 l 1,3,-1
 109 1434 l 1,0,-1
EndSplineSet
Validated: 1
EndChar

StartChar: less
Encoding: 60 60 135
Width: 901
VWidth: 0
Flags: W
LayerCount: 2
Fore
SplineSet
874 956 m 5,0,-1
 874 739 l 5,1,-1
 660 527 l 5,2,-1
 874 314 l 5,3,-1
 874 98 l 5,4,-1
 443 527 l 5,5,-1
 874 956 l 5,0,-1
EndSplineSet
Validated: 1
EndChar

StartChar: equal
Encoding: 61 61 130
Width: 671
Flags: W
LayerCount: 2
Fore
SplineSet
90 479 m 5,0,-1
 582 479 l 5,1,-1
 582 315 l 5,2,-1
 90 315 l 5,3,-1
 90 479 l 5,0,-1
90 729 m 1,4,-1
 582 729 l 1,5,-1
 582 565 l 1,6,-1
 90 565 l 1,7,-1
 90 729 l 1,4,-1
EndSplineSet
Validated: 1
EndChar

StartChar: A
Encoding: 65 65 24
Width: 825
GlyphClass: 2
Flags: W
LayerCount: 2
Fore
SplineSet
311 1434 m 1,0,-1
 514 1434 l 1,1,-1
 821 0 l 1,2,-1
 618 0 l 1,3,-1
 557 307 l 1,4,-1
 268 309 l 1,5,-1
 207 0 l 1,6,-1
 4 0 l 1,7,-1
 311 1434 l 1,0,-1
412 1024 m 2,8,-1
 309 510 l 1,9,-1
 516 510 l 1,10,-1
 414 1024 l 1,11,12
 412 1024 l 2,8,-1
EndSplineSet
Validated: 1
EndChar

StartChar: I
Encoding: 73 73 32
Width: 413
GlyphClass: 2
Flags: W
LayerCount: 2
Fore
SplineSet
309 0 m 5,0,-1
 104 0 l 5,1,-1
 104 1434 l 5,2,-1
 309 1434 l 5,3,-1
 309 0 l 5,0,-1
EndSplineSet
Validated: 1
EndChar

StartChar: L
Encoding: 76 76 35
Width: 749
GlyphClass: 2
Flags: W
LayerCount: 2
Fore
SplineSet
98 0 m 1,0,-1
 98 1434 l 1,1,-1
 303 1434 l 1,2,-1
 303 205 l 1,3,-1
 713 205 l 1,4,-1
 713 0 l 1,5,-1
 98 0 l 1,0,-1
EndSplineSet
Validated: 1
EndChar

StartChar: P
Encoding: 80 80 39
Width: 768
GlyphClass: 2
Flags: W
LayerCount: 2
Fore
SplineSet
98 1432 m 1,0,-1
 508 1432 l 2,1,2
 592 1432 592 1432 651.5 1372.5 c 128,-1,3
 711 1313 711 1313 711 1227 c 2,4,-1
 711 817 l 2,5,6
 711 733 711 733 651.5 673.5 c 128,-1,7
 592 614 592 614 508 614 c 2,8,-1
 301 614 l 1,9,-1
 301 0 l 1,10,-1
 98 0 l 1,11,-1
 98 1432 l 1,0,-1
301 1229 m 1,12,-1
 301 817 l 1,13,-1
 430 817 l 2,14,15
 463 817 463 817 485.5 839.5 c 128,-1,16
 508 862 508 862 508 895 c 2,17,-1
 508 1151 l 2,18,19
 508 1184 508 1184 485.5 1206.5 c 128,-1,20
 463 1229 463 1229 430 1229 c 2,21,-1
 301 1229 l 1,12,-1
EndSplineSet
Validated: 1
EndChar

StartChar: V
Encoding: 86 86 45
Width: 770
GlyphClass: 2
Flags: W
LayerCount: 2
Fore
SplineSet
27 1434 m 1,0,-1
 283 -2 l 1,1,-1
 489 -2 l 1,2,-1
 745 1434 l 1,3,-1
 539 1434 l 1,4,-1
 539 1432 l 1,5,-1
 385 594 l 1,6,-1
 233 1432 l 1,7,-1
 233 1434 l 1,8,-1
 27 1434 l 1,0,-1
EndSplineSet
Validated: 9
EndChar

StartChar: W
Encoding: 87 87 46
Width: 1296
GlyphClass: 2
Flags: W
LayerCount: 2
Fore
SplineSet
33 1436 m 1,0,-1
 289 0 l 1,1,-1
 496 0 l 1,2,-1
 649 856 l 1,3,-1
 801 0 l 1,4,-1
 1008 0 l 1,5,-1
 1264 1434 l 1,6,-1
 1057 1434 l 1,7,-1
 905 596 l 1,8,-1
 752 1436 l 1,9,-1
 545 1436 l 1,10,-1
 391 596 l 1,11,-1
 240 1436 l 1,12,-1
 33 1436 l 1,0,-1
EndSplineSet
Validated: 9
EndChar

StartChar: backslash
Encoding: 92 92 122
Width: 519
VWidth: 0
Flags: HW
LayerCount: 2
Fore
SplineSet
193 1637 m 5,0,-1
 20 1637 l 5,1,-1
 326 -203 l 5,2,-1
 499 -203 l 5,3,-1
 193 1637 l 5,0,-1
EndSplineSet
Validated: 9
EndChar

StartChar: bracketright
Encoding: 93 93 126
Width: 544
VWidth: 0
Flags: HW
LayerCount: 2
Fore
SplineSet
16 1535 m 5,0,-1
 220 1535 l 5,1,-1
 220 -102 l 1,2,-1
 16 -102 l 1,3,-1
 16 -204 l 1,4,-1
 426 -204 l 1,5,-1
 426 -102 l 1,6,-1
 426 1535 l 5,7,-1
 426 1637 l 5,8,-1
 16 1637 l 5,9,-1
 16 1535 l 5,0,-1
EndSplineSet
Validated: 9
EndChar

StartChar: braceright
Encoding: 125 125 131
Width: 519
VWidth: 0
Flags: HW
VStem: 90 312<511 719> 90 208<36 480 750 1190>
LayerCount: 2
Fore
SplineSet
135 -203 m 5,0,-1
 119 -203 l 5,1,-1
 119 5 l 5,2,3
 162 5 162 5 192.5 35.5 c 132,-1,4
 223 66 223 66 223 109 c 6,5,-1
 223 408 l 5,6,-1
 223 1333 l 6,7,8
 223 1376 223 1376 192.5 1406.5 c 132,-1,9
 162 1437 162 1437 119 1437 c 5,10,-1
 119 1645 l 5,11,12
 248 1645 248 1645 323.5 1553.5 c 132,-1,13
 399 1462 399 1462 399 1333 c 6,14,-1
 399 963 l 6,15,16
 399 920 399 920 429.5 889.5 c 132,-1,17
 460 859 460 859 503 859 c 5,18,-1
 503 651 l 5,19,20
 460 651 460 651 429.5 621 c 132,-1,21
 399 591 399 591 399 548 c 6,22,-1
 399 109 l 6,23,24
 399 -16 399 -16 329 -106.5 c 132,-1,25
 259 -197 259 -197 135 -203 c 5,0,-1
EndSplineSet
Validated: 8388609
EndChar

StartChar: Iacute
Encoding: 205 205 87
Width: 413
GlyphClass: 2
Flags: W
LayerCount: 2
Fore
SplineSet
291 1739 m 5,0,-1
 496 1739 l 5,1,-1
 291 1483 l 5,2,-1
 137 1483 l 5,3,-1
 291 1739 l 5,0,-1
309 0 m 1,4,-1
 104 0 l 1,5,-1
 104 1434 l 1,6,-1
 309 1434 l 1,7,-1
 309 0 l 1,4,-1
EndSplineSet
Validated: 1
EndChar

StartChar: agrave
Encoding: 224 224 99
Width: 733
GlyphClass: 2
Flags: W
HStem: 1393 41G<74 301>
LayerCount: 2
Fore
SplineSet
74 1434 m 1
 277 1434 l 1
 430 1180 l 1
 279 1180 l 1
 74 1434 l 1
EndSplineSet
Refer: 51 97 N 1 0 0 1 0 0 2
Validated: 5
EndChar

StartChar: aacute
Encoding: 225 225 100
Width: 733
GlyphClass: 2
Flags: W
HStem: 1393 41G<424 651>
LayerCount: 2
Fore
SplineSet
449 1434 m 1
 651 1434 l 1
 449 1180 l 1
 297 1180 l 1
 449 1434 l 1
EndSplineSet
Refer: 51 97 N 1 0 0 1 0 0 2
Validated: 5
EndChar

StartChar: adieresis
Encoding: 228 228 102
Width: 733
GlyphClass: 2
Flags: W
LayerCount: 2
Fore
SplineSet
51 1432 m 5
 254 1432 l 5
 254 1229 l 5
 51 1229 l 5
 51 1432 l 5
461 1432 m 5
 664 1432 l 5
 664 1229 l 5
 461 1229 l 5
 461 1432 l 5
EndSplineSet
Refer: 51 97 N 1 0 0 1 0 0 2
Validated: 5
EndChar

StartChar: ecircumflex
Encoding: 234 234 106
Width: 749
GlyphClass: 2
Flags: W
VStem: 68 614
LayerCount: 2
Fore
SplineSet
272 1487 m 1
 477 1487 l 1
 682 1231 l 1
 502 1231 l 1
 375 1384 l 1
 248 1231 l 1
 68 1231 l 1
 272 1487 l 1
EndSplineSet
Refer: 55 101 N 1 0 0 1 -1 0 2
Validated: 1
EndChar

StartChar: edieresis
Encoding: 235 235 107
Width: 749
GlyphClass: 2
Flags: W
HStem: 1227 205<68 272 477 682>
VStem: 68 205<1227 1432> 477 205<1227 1432>
LayerCount: 2
Fore
SplineSet
68 1432 m 1
 272 1432 l 1
 272 1227 l 1
 68 1227 l 1
 68 1432 l 1
477 1432 m 1
 682 1432 l 1
 682 1227 l 1
 477 1227 l 1
 477 1432 l 1
EndSplineSet
Refer: 55 101 N 1 0 0 1 0 0 2
Validated: 1
EndChar

StartChar: ocircumflex
Encoding: 244 244 114
Width: 753
GlyphClass: 2
Flags: W
LayerCount: 2
Fore
SplineSet
274 1434 m 1
 479 1434 l 1
 682 1180 l 1
 506 1180 l 1
 377 1335 l 1
 248 1180 l 1
 72 1180 l 1
 274 1434 l 1
EndSplineSet
Refer: 65 111 N 1 0 0 1 0 0 2
Validated: 1
EndChar

StartChar: odieresis
Encoding: 246 246 127
Width: 770
Flags: W
LayerCount: 2
Fore
SplineSet
68 1432 m 1
 270 1432 l 1
 270 1229 l 1
 68 1229 l 1
 68 1432 l 1
477 1432 m 1
 680 1432 l 1
 680 1229 l 1
 477 1229 l 1
 477 1432 l 1
EndSplineSet
Refer: 65 111 S 1 0 0 1 16 0 2
Validated: 1
EndChar
